<svg width="50" height="50" viewBox="0 0 50 50" fill="none" xmlns="http://www.w3.org/2000/svg">
<g id="Planet" clip-path="url(#clip0_32_3161)">
<g id="Group">
<path id="Vector" d="M29.7968 34.7048C26.0546 36.6346 21.5764 36.3513 18.1121 33.9682C17.8632 33.7973 17.7405 33.4963 17.7952 33.2012C17.8521 32.9068 18.0728 32.6716 18.3683 32.6012C21.0615 31.9701 24.05 30.8273 27.01 29.3009C29.97 27.7744 32.634 26.0021 34.7111 24.1733C34.9391 23.9753 35.2588 23.9285 35.5323 24.0543C35.8044 24.1807 35.9785 24.4552 35.9734 24.7572C35.9049 28.9621 33.539 32.7749 29.7968 34.7048ZM20.5345 33.5946C23.2479 34.8103 26.3955 34.7486 29.1001 33.3538C31.8048 31.959 33.6802 29.4304 34.2631 26.5148C30.463 29.4699 25.1455 32.2121 20.5345 33.5946Z" fill="#5D1FC2"/>
<path id="Vector_2" d="M26.3139 27.9496C22.692 29.8174 19.0583 31.2381 16.3425 31.8485C16.0516 31.9146 15.7464 31.8036 15.568 31.5638C15.0895 30.9246 14.7318 30.3634 14.4398 29.7974C14.1479 29.2313 13.8982 28.6144 13.6548 27.854C13.3168 26.6977 13.1548 25.5379 13.1711 24.3888C13.2389 20.1824 15.6047 16.3696 19.3469 14.4398C23.0892 12.5099 27.5674 12.7933 31.0317 15.1764C31.978 15.8308 32.829 16.6353 33.5646 17.5643C34.0548 18.2197 34.4126 18.7808 34.7045 19.3469C34.9964 19.9129 35.2462 20.5298 35.4895 21.2903C35.5814 21.5746 35.4956 21.8891 35.2724 22.0863C33.2003 23.945 29.9359 26.0817 26.3139 27.9496ZM16.4939 30.2517C19.0299 29.6143 22.3195 28.2992 25.6172 26.5986C28.915 24.898 31.8939 22.9803 33.8837 21.2838C33.7167 20.8175 33.5444 20.4138 33.3536 20.0436C33.1013 19.5545 32.7852 19.0608 32.36 18.4917C31.7314 17.6939 30.9891 16.9941 30.1703 16.4278C27.1675 14.3626 23.286 14.1187 20.0436 15.7908C16.8013 17.4628 14.7493 20.7666 14.6915 24.4119C14.6774 25.406 14.8185 26.4159 15.1103 27.4096C15.3197 28.0677 15.5386 28.6116 15.7908 29.1007C15.9817 29.4708 16.2107 29.8453 16.4939 30.2517Z" fill="#5D1FC2"/>
<path id="Vector_3" d="M27.7073 30.6515C24.6378 32.2344 21.5295 33.4201 18.7171 34.082C13.6747 35.2816 10.1457 34.7363 9.03586 32.5841C7.92602 30.432 9.5273 27.2393 13.4305 23.8274C13.6592 23.6308 13.9781 23.5826 14.2503 23.7091C14.5224 23.8355 14.6958 24.1087 14.6921 24.4099C14.6773 25.406 14.8184 26.4159 15.1102 27.4096C15.1912 27.6893 15.1059 27.9916 14.8901 28.1866C13.3278 29.5978 13.0626 30.3537 13.0944 30.5083C13.188 30.5968 13.9576 30.8191 16.0125 30.3665C18.6022 29.7835 22.1046 28.41 25.6172 26.5986C29.1297 24.7872 32.2796 22.7301 34.2589 20.9569C35.8172 19.5478 36.0817 18.7906 36.0505 18.6373C35.957 18.5488 35.1873 18.3265 33.1324 18.7791C32.847 18.8425 32.5526 18.7361 32.3717 18.5078C31.7313 17.6939 30.989 16.9941 30.1702 16.4278C29.9227 16.2562 29.8006 15.9566 29.8554 15.6615C29.9109 15.3678 30.135 15.1325 30.4272 15.0622C35.4688 13.8613 38.9986 14.408 40.1084 16.5601C41.2182 18.7122 39.6163 21.9036 35.7138 25.3169C33.5451 27.2237 30.7767 29.0686 27.7073 30.6515ZM13.27 26.0531C10.8714 28.4428 9.75215 30.6567 10.3868 31.8874C11.1163 33.3019 14.2484 33.5817 18.3662 32.6023C21.062 31.9697 24.0506 30.827 27.0106 29.3006C29.9706 27.7741 32.6345 26.0018 34.7117 24.173C37.8986 21.3853 39.4869 18.6713 38.7574 17.2568C38.1227 16.0261 35.67 15.6542 32.3323 16.2227C32.6583 16.5266 32.9704 16.8531 33.265 17.1989C35.5586 16.7549 36.9167 17.0038 37.4064 17.9535C37.9283 18.9654 37.2313 20.3168 35.275 22.085C33.2003 23.945 29.9358 26.0817 26.3139 27.9496C22.6919 29.8174 19.0582 31.2381 16.3424 31.8485C13.7648 32.4184 12.2596 32.2026 11.7378 31.1908C11.248 30.241 11.8327 28.9903 13.5244 27.379C13.4149 26.9378 13.3299 26.4943 13.27 26.0531Z" fill="#5D1FC2"/>
</g>
</g>
<defs>
<clipPath id="clip0_32_3161">
<rect width="36.4811" height="36.4811" fill="white" transform="translate(0 16.7208) rotate(-27.2801)"/>
</clipPath>
</defs>
</svg>
