<svg width="453" height="299" viewBox="0 0 453 299" fill="none" xmlns="http://www.w3.org/2000/svg">
<path d="M0 0H453V299H0V0Z" fill="#D9D9D9"/>
<path fill-rule="evenodd" clip-rule="evenodd" d="M191.962 104.172C190.791 105.343 190.791 107.229 190.791 111V165C190.791 168.771 190.791 170.657 191.962 171.828C193.134 173 195.019 173 198.791 173H254.209C257.981 173 259.866 173 261.038 171.828C262.209 170.657 262.209 168.771 262.209 165V111C262.209 107.229 262.209 105.343 261.038 104.172C260.853 103.986 260.65 103.83 260.424 103.699V155.5H258.334C256.722 155.5 255.916 155.5 255.189 155.203C254.462 154.906 253.886 154.342 252.735 153.213L243.584 144.244C242.262 142.948 241.6 142.3 240.784 142.3C239.967 142.3 239.306 142.948 237.984 144.244L228.571 153.47L228.571 153.47C227.631 154.392 227.16 154.853 226.645 154.753C226.13 154.653 225.866 154.05 225.338 152.843L225.338 152.843L218.11 136.313L218.11 136.313C217.056 133.901 216.528 132.695 215.497 132.495C214.466 132.295 213.526 133.216 211.646 135.059L196.147 150.25V103.022C194.062 103.084 192.82 103.313 191.962 104.172Z" fill="white"/>
<path d="M198.791 104H254.209C256.123 104 257.458 104.002 258.465 104.138C259.444 104.269 259.962 104.51 260.331 104.879C260.7 105.248 260.94 105.766 261.072 106.744C261.207 107.751 261.209 109.086 261.209 111V165C261.209 166.914 261.207 168.249 261.072 169.256C260.94 170.234 260.7 170.752 260.331 171.121C259.962 171.49 259.444 171.731 258.465 171.862C257.458 171.998 256.123 172 254.209 172H198.791C196.877 172 195.542 171.998 194.535 171.862C193.556 171.731 193.038 171.49 192.669 171.121C192.3 170.752 192.06 170.234 191.928 169.256C191.793 168.249 191.791 166.914 191.791 165V111C191.791 109.086 191.793 107.751 191.928 106.744C192.06 105.766 192.3 105.248 192.669 104.879C193.038 104.51 193.556 104.269 194.535 104.138C195.542 104.002 196.877 104 198.791 104Z" stroke="white" stroke-width="2"/>
<ellipse cx="237.213" cy="127.5" rx="7.1419" ry="7" fill="white"/>
</svg>
