<svg width="181" height="50" viewBox="0 0 181 50" fill="none" xmlns="http://www.w3.org/2000/svg">
<path d="M2.86604 23.128L1.81005 20.68C5.91405 20.32 8.07404 18.88 8.62604 17.392H2.77004V14.872H19.114V17.392H13.234C13.786 18.88 15.946 20.32 20.074 20.68L18.97 23.128C14.818 22.768 12.106 21.208 10.93 19.12C9.75405 21.208 7.04205 22.768 2.86604 23.128ZM15.346 32.08C15.346 30.952 13.834 30.472 10.882 30.472C7.93005 30.472 6.41805 30.952 6.41805 32.08C6.41805 33.184 7.93005 33.664 10.882 33.664C13.834 33.664 15.346 33.184 15.346 32.08ZM20.914 26.512H12.514V28.144C16.306 28.456 18.562 29.824 18.562 32.08C18.562 34.624 15.658 36.088 10.882 36.088C6.10605 36.088 3.22605 34.624 3.22605 32.08C3.22605 29.8 5.50604 28.432 9.34604 28.12V26.512H0.946045V23.992H20.914V26.512Z" fill="#5D1FC2"/>
<path d="M40.2322 28.552L37.0642 28.192C37.9042 24.016 37.9522 20.944 37.9522 18.376H25.0642V15.856H41.1202V17.968C41.1202 20.728 41.1202 23.848 40.2322 28.552ZM33.2722 30.856H43.0402V33.4H23.0482V30.856H30.1042V23.248H33.2722V30.856Z" fill="#5D1FC2"/>
<path d="M44.6943 34L48.3183 16.864H53.0943C54.4863 16.864 55.5983 17.072 56.4303 17.488C57.2783 17.904 57.8863 18.488 58.2543 19.24C58.6383 19.992 58.8303 20.864 58.8303 21.856C58.8303 22.88 58.6383 23.768 58.2543 24.52C57.8863 25.272 57.3663 25.904 56.6943 26.416C56.0223 26.912 55.2303 27.288 54.3183 27.544C53.4063 27.784 52.4223 27.904 51.3663 27.904H49.5423L48.2703 34H44.6943ZM51.6543 24.928C52.3743 24.928 52.9983 24.816 53.5263 24.592C54.0703 24.352 54.4863 24.008 54.7743 23.56C55.0783 23.112 55.2303 22.576 55.2303 21.952C55.2303 21.232 55.0383 20.704 54.6543 20.368C54.2703 20.016 53.7023 19.84 52.9503 19.84H51.2703L50.1903 24.928H51.6543Z" fill="#5D1FC2"/>
<path d="M59.3427 34L62.9667 16.864H66.5427L63.5427 31H69.5427L68.9187 34H59.3427Z" fill="#5D1FC2"/>
<path d="M69.7006 34L78.6766 16.864H83.0446L84.7726 34H81.2926L81.0046 29.92H75.4606L73.4446 34H69.7006ZM76.9246 26.872H80.8366L80.5246 22.456C80.4926 21.992 80.4606 21.52 80.4286 21.04C80.3966 20.56 80.3886 20.072 80.4046 19.576H80.3566C80.1966 20.008 80.0206 20.44 79.8286 20.872C79.6366 21.288 79.4206 21.744 79.1806 22.24L76.9246 26.872Z" fill="#5D1FC2"/>
<path d="M86.8349 34L90.4589 16.864H94.6349L98.6189 29.488H98.7149C98.7629 29.232 98.8109 28.92 98.8589 28.552C98.9229 28.184 98.9869 27.792 99.0509 27.376C99.1309 26.944 99.2109 26.52 99.2909 26.104C99.3709 25.688 99.4429 25.312 99.5069 24.976L101.235 16.864H104.451L100.827 34H96.8189L92.6429 21.04H92.5229C92.5069 21.136 92.4749 21.368 92.4269 21.736C92.3789 22.088 92.3149 22.512 92.2349 23.008C92.1709 23.504 92.0909 24.016 91.9949 24.544C91.9149 25.056 91.8349 25.52 91.7549 25.936L90.0509 34H86.8349Z" fill="#5D1FC2"/>
<path d="M104.952 34L108.576 16.864H118.152L117.528 19.84H111.528L110.736 23.608H116.328L115.68 26.584H110.088L109.152 31H115.152L114.528 34H104.952Z" fill="#5D1FC2"/>
<path d="M120.456 34L123.432 19.888H119.304L119.952 16.864H131.784L131.136 19.888H127.008L124.032 34H120.456Z" fill="#5D1FC2"/>
<g clip-path="url(#clip0_32_3159)">
<path d="M160.797 34.7048C157.055 36.6346 152.576 36.3513 149.112 33.9682C148.863 33.7973 148.74 33.4963 148.795 33.2012C148.852 32.9068 149.073 32.6716 149.368 32.6012C152.061 31.9701 155.05 30.8273 158.01 29.3009C160.97 27.7744 163.634 26.0021 165.711 24.1733C165.939 23.9753 166.259 23.9285 166.532 24.0543C166.804 24.1807 166.978 24.4552 166.973 24.7572C166.905 28.9621 164.539 32.7749 160.797 34.7048ZM151.534 33.5946C154.248 34.8103 157.395 34.7486 160.1 33.3538C162.805 31.959 164.68 29.4304 165.263 26.5148C161.463 29.4699 156.146 32.2121 151.534 33.5946Z" fill="#5D1FC2"/>
<path d="M157.314 27.9496C153.692 29.8174 150.058 31.2381 147.342 31.8485C147.052 31.9146 146.746 31.8036 146.568 31.5638C146.09 30.9246 145.732 30.3634 145.44 29.7974C145.148 29.2313 144.898 28.6144 144.655 27.854C144.317 26.6977 144.155 25.5379 144.171 24.3888C144.239 20.1824 146.605 16.3696 150.347 14.4398C154.089 12.5099 158.567 12.7933 162.032 15.1764C162.978 15.8308 163.829 16.6353 164.565 17.5643C165.055 18.2197 165.413 18.7808 165.705 19.3469C165.996 19.9129 166.246 20.5298 166.49 21.2903C166.581 21.5746 166.496 21.8891 166.272 22.0863C164.2 23.945 160.936 26.0817 157.314 27.9496ZM147.494 30.2517C150.03 29.6143 153.319 28.2992 156.617 26.5986C159.915 24.898 162.894 22.9803 164.884 21.2838C164.717 20.8175 164.544 20.4138 164.354 20.0436C164.101 19.5545 163.785 19.0608 163.36 18.4917C162.731 17.6939 161.989 16.9941 161.17 16.4278C158.168 14.3626 154.286 14.1187 151.044 15.7908C147.801 17.4628 145.749 20.7666 145.691 24.4119C145.677 25.406 145.818 26.4159 146.11 27.4096C146.32 28.0677 146.539 28.6116 146.791 29.1007C146.982 29.4708 147.211 29.8453 147.494 30.2517Z" fill="#5D1FC2"/>
<path d="M158.707 30.6515C155.638 32.2344 152.529 33.4201 149.717 34.082C144.675 35.2816 141.146 34.7363 140.036 32.5841C138.926 30.432 140.527 27.2393 144.43 23.8274C144.659 23.6308 144.978 23.5826 145.25 23.7091C145.522 23.8355 145.696 24.1087 145.692 24.4099C145.677 25.406 145.818 26.4159 146.11 27.4096C146.191 27.6893 146.106 27.9916 145.89 28.1866C144.328 29.5978 144.063 30.3537 144.094 30.5083C144.188 30.5968 144.958 30.8191 147.013 30.3665C149.602 29.7835 153.105 28.41 156.617 26.5986C160.13 24.7872 163.28 22.7301 165.259 20.9569C166.817 19.5478 167.082 18.7906 167.051 18.6373C166.957 18.5488 166.187 18.3265 164.132 18.7791C163.847 18.8425 163.553 18.7361 163.372 18.5078C162.731 17.6939 161.989 16.9941 161.17 16.4278C160.923 16.2562 160.801 15.9566 160.855 15.6615C160.911 15.3678 161.135 15.1325 161.427 15.0622C166.469 13.8613 169.999 14.408 171.108 16.5601C172.218 18.7122 170.616 21.9036 166.714 25.3169C164.545 27.2237 161.777 29.0686 158.707 30.6515ZM144.27 26.0531C141.871 28.4428 140.752 30.6567 141.387 31.8874C142.116 33.3019 145.248 33.5817 149.366 32.6023C152.062 31.9697 155.051 30.827 158.011 29.3006C160.971 27.7741 163.634 26.0018 165.712 24.173C168.899 21.3853 170.487 18.6713 169.757 17.2568C169.123 16.0261 166.67 15.6542 163.332 16.2227C163.658 16.5266 163.97 16.8531 164.265 17.1989C166.559 16.7549 167.917 17.0038 168.406 17.9535C168.928 18.9654 168.231 20.3168 166.275 22.085C164.2 23.945 160.936 26.0817 157.314 27.9496C153.692 29.8174 150.058 31.2381 147.342 31.8485C144.765 32.4184 143.26 32.2026 142.738 31.1908C142.248 30.241 142.833 28.9903 144.524 27.379C144.415 26.9378 144.33 26.4943 144.27 26.0531Z" fill="#5D1FC2"/>
</g>
<defs>
<clipPath id="clip0_32_3159">
<rect width="36.4811" height="36.4811" fill="white" transform="translate(131 16.7208) rotate(-27.2801)"/>
</clipPath>
</defs>
</svg>
