<svg width="42" height="42" viewBox="0 0 42 42" fill="none" xmlns="http://www.w3.org/2000/svg">
<g id="Basket_alt_3">
<path id="Vector" d="M7 7H10.6884C11.4384 7 11.8134 7 12.0846 7.21179C12.3559 7.42359 12.4468 7.78737 12.6287 8.51493L13.2425 10.9701C13.6063 12.4253 13.7882 13.1528 14.3307 13.5764C14.8733 14 15.6232 14 17.1231 14H17.5" stroke="#222222" stroke-width="2" stroke-linecap="round"/>
<path id="Rectangle 41" d="M31.5 29.75H13.2141C12.0056 29.75 11.4014 29.75 11.1011 29.3678C11.084 29.3461 11.0679 29.3237 11.0527 29.3006C10.785 28.8949 10.9761 28.3216 11.3583 27.1752V27.1752C11.7786 25.9141 11.9888 25.2836 12.4782 24.9101C12.5072 24.888 12.5367 24.8666 12.5669 24.8461C13.0759 24.5 13.7406 24.5 15.0699 24.5H24.5" stroke="#222222" stroke-width="2" stroke-linecap="round" stroke-linejoin="round"/>
<path id="Vector 339" d="M27.2779 24.5H17.3885C15.7702 24.5 14.961 24.5 14.4015 24.026C13.842 23.5521 13.709 22.7539 13.4429 21.1576L12.8322 17.4932C12.5619 15.8716 12.4268 15.0609 12.8762 14.5304C13.3255 14 14.1475 14 15.7914 14H31.7639C33.2143 14 33.9395 14 34.2326 14.4743C34.5257 14.9485 34.2014 15.5972 33.5528 16.8944L30.8556 22.2889C30.3177 23.3647 30.0487 23.9026 29.5654 24.2013C29.0821 24.5 28.4807 24.5 27.2779 24.5Z" stroke="#222222" stroke-width="2" stroke-linecap="round"/>
<circle id="Ellipse 167" cx="29.75" cy="35" r="1.75" fill="#222222"/>
<circle id="Ellipse 168" cx="15.75" cy="35" r="1.75" fill="#222222"/>
</g>
</svg>
