<svg width="14" height="15" viewBox="0 0 14 15" fill="none" xmlns="http://www.w3.org/2000/svg">
<g id="Img_box_fill">
<path id="Subtract" fill-rule="evenodd" clip-rule="evenodd" d="M1.39683 4.54255C1.16675 5.19128 1.16675 5.99931 1.16675 7.61538C1.16675 9.23145 1.16675 10.0395 1.39683 10.6882C1.79976 11.8243 2.69358 12.7182 3.82971 13.1211C4.47843 13.3512 5.28647 13.3512 6.90254 13.3512H7.09763C8.7137 13.3512 9.52173 13.3512 10.1705 13.1211C11.3066 12.7182 12.2004 11.8243 12.6033 10.6882C12.8334 10.0395 12.8334 9.23145 12.8334 7.61538C12.8334 5.99931 12.8334 5.19128 12.6033 4.54255C12.5839 4.48785 12.5634 4.43371 12.5417 4.38016V10.4833C11.981 10.4833 11.4427 10.263 11.0428 9.8698L10.6067 9.44098C9.90005 8.74612 8.76678 8.74612 8.0601 9.44098L7.99197 9.50798C7.51362 9.97832 6.71232 9.82306 6.44428 9.20808L6.41675 9.14493L6.40894 9.12705C5.84622 7.84962 4.18111 7.52697 3.18198 8.50176L3.16806 8.51543L2.04175 9.62291V3.3827C1.7668 3.72678 1.5475 4.11773 1.39683 4.54255Z" fill="white"/>
<path id="Rectangle 1" d="M2.16675 7.61538C2.16675 5.91451 2.18125 5.32248 2.33931 4.87682C2.64151 4.02472 3.31187 3.35436 4.16397 3.05215C4.60963 2.8941 5.20166 2.8796 6.90253 2.8796H7.09763C8.7985 2.8796 9.39054 2.8941 9.8362 3.05215L10.1705 2.10967L9.8362 3.05215C10.6883 3.35436 11.3587 4.02472 11.6609 4.87682L12.6033 4.54256L11.6609 4.87682C11.8189 5.32248 11.8334 5.91451 11.8334 7.61538C11.8334 9.31625 11.8189 9.90829 11.6609 10.3539C11.3587 11.206 10.6883 11.8764 9.8362 12.1786C9.39054 12.3367 8.7985 12.3512 7.09763 12.3512H6.90254C5.20166 12.3512 4.60963 12.3367 4.16397 12.1786C3.31187 11.8764 2.64151 11.206 2.33931 10.3539C2.18125 9.90829 2.16675 9.31625 2.16675 7.61538Z" stroke="white" stroke-width="2"/>
<ellipse id="Ellipse 46" cx="8.74992" cy="5.89465" rx="1.16667" ry="1.14716" fill="white"/>
</g>
</svg>
