<svg width="42" height="42" viewBox="0 0 42 42" fill="none" xmlns="http://www.w3.org/2000/svg">
<g id="User_cicrle_duotone">
<path id="Rectangle 1" d="M5.25 21C5.25 12.3015 12.3015 5.25 21 5.25C29.6985 5.25 36.75 12.3015 36.75 21C36.75 29.6985 29.6985 36.75 21 36.75C12.3015 36.75 5.25 29.6985 5.25 21Z" fill="#7E869E" fill-opacity="0.25"/>
<circle id="Ellipse 46" cx="21" cy="17.5" r="7" fill="#222222"/>
<path id="Intersect" fill-rule="evenodd" clip-rule="evenodd" d="M31.9597 32.0538C32.0165 32.151 31.9988 32.2741 31.9177 32.3521C29.0865 35.0756 25.2389 36.75 21.0001 36.75C16.7615 36.75 12.9139 35.0756 10.0827 32.3522C10.0016 32.2742 9.98389 32.1511 10.0407 32.054C12.0517 28.6125 16.2041 26.25 21.0002 26.25C25.7963 26.25 29.9487 28.6125 31.9597 32.0538Z" fill="#222222"/>
</g>
</svg>
